<svg width="60" height="48" viewBox="0 0 60 48" fill="none" xmlns="http://www.w3.org/2000/svg">
<path fill-rule="evenodd" clip-rule="evenodd" d="M42.6225 44.3507L45.0695 47.9549C54.2375 43.3815 60 34.9769 60 25.715C60 11.513 46.5685 0 30 0C13.4315 0 0 11.513 0 25.715C0 35.009 5.80262 43.4383 15.0214 48L17.4536 44.3886C9.72522 40.5644 4.86487 33.5039 4.86487 25.715C4.86487 13.816 16.1182 4.17 30 4.17C43.8818 4.17 55.1351 13.816 55.1351 25.715C55.1351 33.477 50.3085 40.5167 42.6225 44.3507ZM40.1511 41.5555L37.8055 37.9022C42.9523 35.4743 46.2162 30.8415 46.2162 25.715C46.2162 18.0382 38.956 11.815 30 11.815C21.044 11.815 13.7838 18.0382 13.7838 25.715C13.7838 30.8498 17.0583 35.4889 22.2182 37.9134L19.8798 41.57C13.1771 38.4207 8.91892 32.388 8.91892 25.715C8.91892 15.7352 18.3572 7.64496 30 7.64496C41.6428 7.64496 51.0811 15.7352 51.0811 25.715C51.0811 32.3772 46.8367 38.4017 40.1511 41.5555ZM33.0588 31.396L35.1011 35.1807C39.3699 33.4883 42.1622 29.8183 42.1622 25.7148C42.1622 19.9572 36.717 15.2898 30 15.2898C23.283 15.2898 17.8378 19.9572 17.8378 25.7148C17.8378 29.8426 20.6633 33.5303 24.9706 35.2089L26.9841 31.4128C24.3978 30.4049 22.7027 28.1925 22.7027 25.7148C22.7027 22.2603 25.9698 19.4598 30 19.4598C34.0302 19.4598 37.2973 22.2603 37.2973 25.7148C37.2973 28.178 35.6222 30.3797 33.0588 31.396ZM30 28.4951C31.7912 28.4951 33.2432 27.2505 33.2432 25.7151C33.2432 24.1798 31.7912 22.9351 30 22.9351C28.2088 22.9351 26.7568 24.1798 26.7568 25.7151C26.7568 27.2505 28.2088 28.4951 30 28.4951Z" fill="#030D42"/>
</svg>
