<svg width="50" height="48" viewBox="0 0 50 48" fill="none" xmlns="http://www.w3.org/2000/svg">
<path fill-rule="evenodd" clip-rule="evenodd" d="M0 15.4932C0 9.80774 2.28186 4.47728 6.26252 0.554089C7.01684 -0.189343 8.23446 -0.183987 8.98213 0.566053C9.72981 1.31609 9.72443 2.52679 8.9701 3.27022C5.71086 6.48241 3.84615 10.8384 3.84615 15.4932C3.84615 20.148 5.71086 24.504 8.9701 27.7162C9.72443 28.4596 9.72981 29.6703 8.98213 30.4203C8.23446 31.1704 7.01684 31.1757 6.26252 30.4323C2.28186 26.5091 0 21.1787 0 15.4932ZM43.7375 30.4323C47.7181 26.5091 50 21.1787 50 15.4932C50 9.80774 47.7181 4.47728 43.7375 0.554089C42.9831 -0.189343 41.7655 -0.183987 41.0178 0.566053C40.2702 1.31609 40.2755 2.52679 41.0299 3.27022C44.2891 6.48241 46.1538 10.8384 46.1538 15.4932C46.1538 20.148 44.2891 24.504 41.0299 27.7162C40.2755 28.4596 40.2702 29.6703 41.0178 30.4203C41.7655 31.1704 42.9831 31.1757 43.7375 30.4323ZM9.61542 15.4932C9.61542 11.9726 10.9909 8.66264 13.4047 6.18365C14.1434 5.42493 15.3609 5.40534 16.124 6.13991C16.887 6.87448 16.9067 8.08503 16.168 8.84375C14.4419 10.6164 13.4616 12.9756 13.4616 15.4932C13.4616 18.0108 14.4419 20.37 16.168 22.1426C16.9067 22.9013 16.887 24.1119 16.124 24.8465C15.3609 25.581 14.1434 25.5615 13.4047 24.8027C10.9909 22.3237 9.61542 19.0137 9.61542 15.4932ZM36.5954 24.8027C39.0092 22.3237 40.3847 19.0137 40.3847 15.4932C40.3847 11.9726 39.0092 8.66264 36.5954 6.18365C35.8567 5.42493 34.6392 5.40534 33.8761 6.13991C33.1131 6.87448 33.0934 8.08503 33.8322 8.84375C35.5582 10.6164 36.5385 12.9756 36.5385 15.4932C36.5385 18.0108 35.5582 20.37 33.8322 22.1426C33.0934 22.9013 33.1131 24.1119 33.8761 24.8465C34.6392 25.581 35.8567 25.5615 36.5954 24.8027ZM23.077 20.9034C20.8362 20.1159 19.2308 17.991 19.2308 15.4933C19.2308 12.3252 21.8138 9.75688 25.0001 9.75688C28.1863 9.75688 30.7693 12.3252 30.7693 15.4933C30.7693 17.991 29.1639 20.1159 26.9231 20.9034V46.0878C26.9231 47.1439 26.0622 48 25.0001 48C23.938 48 23.077 47.1439 23.077 46.0878V20.9034Z" fill="#030D42"/>
</svg>
