<svg width="159" height="33" viewBox="0 0 159 33" fill="none" xmlns="http://www.w3.org/2000/svg">
<path d="M20.2888 14.2033C24.1273 10.8924 31.9665 -1.03842 19.6941 1.07373C14.3419 1.93001 6.50271 7.41018 4.93488 13.7466C4.12393 12.0341 3.20485 10.4357 2.23171 8.83731C0.71794 6.66807 -0.958021 8.38062 0.663877 10.5499C5.47174 16.6962 8.24375 24.3343 8.55711 32.2993C8.93556 28.4746 8.34086 23.7936 6.88115 19.2268C7.58397 19.4551 8.39492 19.5693 9.09775 19.5693C11.5847 23.9078 15.4231 27.6183 19.6941 29.3309C23.6408 30.9863 28.8849 30.0159 26.7224 23.3369C25.587 19.6835 22.9379 16.4867 20.2888 14.2033ZM20.8295 2.61503C27.6414 1.81584 20.3429 10.7782 17.9641 12.4337C15.7475 10.8924 12.9362 9.52233 10.2331 9.92192C12.1794 7.23892 16.9369 3.12879 20.8295 2.61503ZM10.179 11.8628C12.0172 11.6916 14.0175 12.7762 15.5853 13.9179C14.0716 14.7171 12.4497 15.1738 10.7737 15.345C8.2868 15.345 7.74616 12.0912 10.179 11.8628ZM19.586 25.7916C16.3963 24.8211 13.3687 22.081 11.2062 19.341C12.9903 18.9414 14.7744 18.1993 16.3963 17.1717C16.991 16.8863 17.5857 16.4296 18.1263 16.03C20.0185 17.8568 22.0189 20.3114 22.7758 23.1086C23.5326 26.1341 21.4782 26.3624 19.586 25.7916Z" fill="#4F4F4F"/>
<path d="M46.401 6.66821H37.1021C36.7777 6.66821 36.5074 6.95364 36.5074 7.29615H36.4534V22.7091C36.4534 23.0516 36.7237 23.3371 37.0481 23.3371C37.3184 23.3371 37.5887 23.0516 37.6428 22.7091V15.7447H45.536C45.8604 15.7447 46.0226 15.4593 46.0226 15.1739C46.0226 14.8314 45.8063 14.6601 45.536 14.6601H37.5887V7.867H46.401C46.7254 7.867 46.8876 7.58157 46.8876 7.29615C46.8876 7.12489 46.7254 6.89655 46.401 6.66821ZM50.672 5.86902H50.6179C50.3476 5.86902 50.1854 6.09736 50.1854 6.38278V22.652C50.1854 22.9946 50.4017 23.2229 50.672 23.2229C50.9964 23.2229 51.1586 22.9375 51.1586 22.652V6.49695C51.1586 6.09736 50.9964 5.86902 50.672 5.86902ZM64.1338 11.6917C64.1338 11.3492 63.9175 11.1208 63.6472 11.1208C63.3228 11.1208 63.1606 11.4063 63.1606 11.6917V18.4848C63.1606 20.7682 61.4847 22.595 59.4303 22.5379C57.2677 22.5379 56.0243 20.9395 56.0243 18.4277V11.6917C56.0243 11.3492 55.808 11.1208 55.5377 11.1208C55.3215 11.1208 55.0511 11.4063 55.0511 11.6917V18.599C55.0511 21.4533 56.673 23.5654 59.3221 23.5654C60.944 23.6225 62.4578 22.652 63.2147 21.0537V22.8233C63.2147 23.1658 63.485 23.3371 63.7013 23.3371C64.0256 23.3371 64.1878 23.0516 64.1878 22.8233H64.1338V11.6917ZM73.0542 12.2626C73.2705 12.2626 73.5408 12.0342 73.5408 11.7488C73.5408 11.5204 73.2705 11.235 73.0542 11.235H69.6482V7.867C69.6482 7.58157 69.3779 7.29615 69.1616 7.29615H69.1076C68.8373 7.29615 68.6751 7.58157 68.6751 7.867V11.235H67.4857C67.2154 11.235 66.9991 11.4063 66.9991 11.6917C66.9991 11.9771 67.2154 12.2626 67.4857 12.2626H68.6751V20.1403C68.6751 22.3666 70.0267 23.4512 71.5945 23.4512C72.1351 23.4512 72.6758 23.3371 73.1623 23.1658C73.3245 23.0516 73.4867 22.8804 73.4867 22.652C73.4867 22.3666 73.2705 22.1954 73.0542 22.1954C72.6758 22.3095 72.2433 22.3666 71.8107 22.3666C70.5132 22.3666 69.6482 21.7387 69.6482 20.0261V12.2626H73.0542ZM81.434 12.2626C81.7043 12.2626 81.9206 12.0342 81.9206 11.7488C81.9206 11.5204 81.7043 11.235 81.434 11.235H78.028V7.867C78.028 7.58157 77.8118 7.29615 77.5415 7.29615H77.4874C77.2171 7.29615 77.0549 7.58157 77.0549 7.867V11.235H75.8655C75.6492 11.235 75.3789 11.4063 75.3789 11.6917C75.3789 11.9771 75.6492 12.2626 75.8655 12.2626H77.0549V20.1403C77.0549 22.3666 78.4065 23.4512 80.0284 23.4512C80.5149 23.4512 81.0556 23.3371 81.5421 23.1658C81.7584 23.0516 81.8665 22.8804 81.8665 22.652C81.8665 22.3666 81.7043 22.1954 81.434 22.1954C81.0556 22.3095 80.6231 22.3666 80.1906 22.3666C78.893 22.3666 78.028 21.7387 78.028 20.0261V12.2626H81.434ZM88.8407 10.8925C85.9753 10.8925 83.8128 13.6326 83.8128 17.229V17.286C83.8128 21.1107 86.1916 23.6225 89.0569 23.6225C90.5707 23.6796 92.1385 22.9946 93.1657 21.6816C93.3279 21.5674 93.382 21.3962 93.382 21.282C93.382 20.9966 93.1117 20.7111 92.8954 20.7111L92.571 20.8253C92.1421 21.3533 91.6119 21.779 91.0153 22.0743C90.4188 22.3695 89.7697 22.5275 89.111 22.5379C87.0025 22.5379 85.1103 20.7682 84.8941 17.7998H93.3279C93.5442 17.7998 93.8145 17.5144 93.8145 17.229C93.8145 13.6326 91.8682 10.8925 88.8407 10.8925ZM84.84 16.6581C85.0022 14.0322 86.6782 11.9771 88.7866 11.9771C91.2195 11.9771 92.517 14.2034 92.6251 16.6581H84.84ZM102.086 11.0638C100.14 11.235 98.518 12.6621 97.8152 14.7172V11.7488C97.8152 11.5204 97.5449 11.235 97.3286 11.235C97.0042 11.235 96.842 11.4063 96.788 11.7488V22.9375C96.788 23.2229 97.0042 23.5083 97.2746 23.5083C97.5449 23.5083 97.7611 23.28 97.8152 22.9375V18.4848C97.8152 14.546 99.8155 12.6621 102.086 12.3767H102.14C102.465 12.3767 102.627 12.0342 102.627 11.7488C102.627 11.3492 102.411 11.0638 102.086 11.0638Z" fill="#4F4F4F"/>
<path d="M120.305 10.4359C119.602 10.4359 118.954 11.0067 118.792 11.8059L116.953 18.3136L115.169 11.8059C115.007 11.0067 114.304 10.3788 113.493 10.3788H113.331C112.52 10.3788 111.817 10.8925 111.655 11.8059L109.871 18.1994L108.141 11.7488C107.925 11.0067 107.33 10.3788 106.573 10.3788H106.519C105.708 10.3788 105.114 11.1209 105.114 12.0342L105.222 12.8905L107.979 21.8529C108.195 22.7662 108.898 23.3942 109.763 23.4513H109.871C110.682 23.4513 111.331 22.8233 111.601 21.91L113.385 15.5164L115.169 21.91C115.386 22.8233 116.088 23.4513 116.899 23.4513H117.062C117.927 23.4513 118.629 22.8233 118.846 21.8529L121.603 12.7764L121.765 12.0913V12.0342C121.765 11.1209 121.116 10.4359 120.305 10.4359ZM128.253 10.4359C127.009 10.3788 125.82 10.6642 124.63 11.0638C124.144 11.2921 123.873 11.8059 123.873 12.4338C123.873 13.2901 124.468 13.9181 125.225 13.861C125.333 13.861 125.495 13.861 125.658 13.7468C126.36 13.5185 127.117 13.4043 127.874 13.4043C129.496 13.4043 130.307 14.2035 130.307 15.7448V15.916C129.442 15.5735 128.469 15.4594 127.55 15.4594C124.901 15.4594 123.063 16.7723 123.063 19.5695C123.063 22.0241 124.847 23.4513 126.901 23.4513C128.199 23.5084 129.442 22.8804 130.307 21.8529C130.361 22.7662 131.01 23.3942 131.821 23.3942C132.686 23.3942 133.389 22.595 133.389 21.6245V15.916C133.443 14.4889 133.01 13.0047 132.145 11.9201C131.226 11.0067 129.983 10.4359 128.253 10.4359ZM130.361 18.7132C130.361 20.0832 129.28 20.9395 127.82 20.8824C126.793 20.8824 126.09 20.3116 126.09 19.3411V19.2841C126.09 18.1994 126.955 17.5144 128.307 17.5144C128.955 17.5144 129.712 17.7428 130.361 18.0282V18.7132ZM144.363 10.3788C143.715 10.3788 143.066 10.8355 142.904 11.6346L140.417 18.9986L138.038 11.6917C137.822 10.8925 137.227 10.3788 136.47 10.3788C135.659 10.3788 135.011 11.0638 134.902 12.0342C134.902 12.3197 135.011 12.6051 135.119 12.8905L138.579 21.8529C138.795 22.7662 139.498 23.3942 140.363 23.4513H140.579C141.336 23.3942 142.093 22.8233 142.417 21.91L145.769 12.9476L145.931 12.0913V12.0342C145.931 11.1209 145.283 10.3788 144.363 10.3788ZM152.743 10.3217C149.445 10.3217 147.175 13.2901 147.175 16.8865V17.4573C147.283 20.9395 149.986 23.6225 153.068 23.4513C154.473 23.4513 155.825 22.9375 156.96 21.91C157.285 21.6245 157.393 21.282 157.393 20.8824V20.8254C157.393 20.0262 156.852 19.3982 156.149 19.3982C155.879 19.3982 155.609 19.4553 155.392 19.6837C154.762 20.2566 153.953 20.5618 153.122 20.5399C151.77 20.597 150.581 19.5695 150.419 18.0282H156.744C157.555 17.9711 158.204 17.1719 158.15 16.2585V15.9731C158.15 12.8905 155.717 10.2075 152.743 10.3217ZM150.31 15.916C150.581 14.2606 151.446 13.233 152.743 13.233C154.041 13.233 154.906 14.3176 155.068 15.916H150.31Z" fill="#4F4F4F" stroke="#C2C2C2"/>
</svg>
