<svg width="146" height="33" viewBox="0 0 146 33" fill="none" xmlns="http://www.w3.org/2000/svg">
<path d="M86.545 14.2388V2.21383C86.545 1.43298 87.1205 0.825256 87.86 0.825256C88.5995 0.825256 89.1751 1.43298 89.1751 2.21383V23.7445C89.1751 29.4755 85.8043 32.2963 81.1173 32.2963C75.8146 32.2963 72.6892 28.9526 72.6892 21.833C72.6892 14.7146 75.6495 11.4157 80.9534 11.4157C83.5846 11.4169 85.5979 12.849 86.545 14.2388ZM86.545 17.7556C86.545 17.7556 84.9834 13.9349 81.1185 13.9349C77.3762 13.9349 75.3205 16.4954 75.3205 21.8342C75.3205 27.2601 77.3361 29.7794 81.1185 29.7794C84.2852 29.7794 86.545 27.8691 86.545 23.7457V17.7556Z" fill="#4F4F4F"/>
<path d="M101.76 11.4175C108.336 11.4175 109.613 16.9307 109.613 19.8821C109.613 21.1424 109.613 22.6605 107.967 22.6605H95.9631C95.9631 26.9593 98.3078 29.7377 102.172 29.7377C104.555 29.7377 105.954 28.7825 107.105 27.8697C107.353 27.6966 107.516 27.6094 107.846 27.6094C108.504 27.6094 109.038 28.1748 109.038 28.8697C109.038 29.3455 108.833 29.607 108.585 29.8672C107.968 30.5173 105.831 32.2981 102.172 32.2981C96.7038 32.2981 93.2917 29.13 93.2917 21.8348C93.2906 15.1511 96.4149 11.4175 101.76 11.4175ZM101.76 13.9356C98.1828 13.9356 96.2085 16.3665 95.962 20.2296H107.021C107.023 17.1038 105.995 13.9356 101.76 13.9356Z" fill="#4F4F4F"/>
<path d="M115.864 16.7139C115.864 21.273 126.678 19.5794 126.678 26.5247C126.678 30.4761 123.595 32.2557 119.687 32.2557C116.316 32.2557 113.726 30.5633 112.657 29.1299C112.45 28.8248 112.369 28.6069 112.369 28.3043C112.369 27.6094 112.903 27.044 113.561 27.044C113.808 27.044 114.137 27.1312 114.466 27.4786C115.74 28.8236 117.385 29.6069 119.687 29.6069C122.031 29.6069 124.046 28.7812 124.046 26.5235C124.046 22.0527 113.232 23.8323 113.232 16.7127C113.232 13.1087 116.027 11.4598 119.522 11.4598C122.317 11.4598 124.498 12.4586 125.772 14.2382C125.894 14.4113 126.058 14.6716 126.058 15.0626C126.058 15.7575 125.524 16.3216 124.867 16.3216C124.661 16.3216 124.332 16.2781 124.003 15.9306C122.893 14.8011 121.66 14.1074 119.522 14.1074C117.673 14.1087 115.864 14.7164 115.864 16.7139Z" fill="#4F4F4F"/>
<path d="M143.534 31.4295L136.257 21.5739L133.749 23.7021V30.691C133.749 31.4718 133.173 32.0784 132.434 32.0784C131.694 32.0784 131.119 31.4706 131.119 30.691V2.21383C131.119 1.43298 131.695 0.825256 132.434 0.825256C133.174 0.825256 133.749 1.43298 133.749 2.21383V20.402L143.452 12.0246C143.78 11.7207 144.109 11.6772 144.355 11.6772C145.096 11.6772 145.671 12.2849 145.671 13.0657C145.671 13.4132 145.549 13.8478 145.136 14.194L138.393 19.8802L145.712 29.8206C145.958 30.1256 146.001 30.4283 146.001 30.691C146.001 31.4718 145.425 32.0784 144.684 32.0784C144.233 32.0796 143.863 31.8616 143.534 31.4295Z" fill="#4F4F4F"/>
<path d="M9.16882 11.4175C12.9512 11.4175 15.1296 13.4138 15.8703 14.4126C16.1993 14.8908 16.3231 15.2382 16.3231 15.7588C16.3231 16.9307 15.4598 17.8422 14.35 17.8422C13.6919 17.8422 13.1989 17.5396 12.8285 17.105C12.2942 16.4973 11.2257 15.4126 9.16997 15.4126C6.29219 15.4126 4.72948 17.7575 4.72948 21.836C4.72948 26.0042 6.29219 28.3055 9.16997 28.3055C11.0606 28.3055 12.2942 27.308 13.2401 26.5671C13.693 26.2221 14.0622 26.1349 14.4738 26.1349C15.5836 26.1349 16.447 27.0453 16.447 28.2184C16.447 28.8261 16.2417 29.3467 15.7487 29.8236C14.8028 30.7364 12.5419 32.2993 9.17112 32.2993C3.57951 32.2993 0.250001 28.9133 0.250001 21.836C0.247709 14.76 3.57722 11.4175 9.16882 11.4175Z" fill="#4F4F4F"/>
<path d="M23.6848 14.0217C24.4656 12.7626 26.1934 11.4165 28.9474 11.4165C34.539 11.4165 35.854 15.1936 35.854 18.9707V29.8213C35.854 31.124 34.8669 32.0791 33.6332 32.0791C32.3181 32.0791 31.4124 31.124 31.4124 29.8213V19.8387C31.4124 17.3642 30.4665 15.6705 27.7951 15.6705C24.7121 15.6705 23.6837 17.5809 23.6837 20.1413V29.8213C23.6837 31.124 22.7378 32.0791 21.4628 32.0791C20.189 32.0791 19.2432 31.124 19.2432 29.8213V3.16978C19.2432 1.86716 20.2292 0.824829 21.4628 0.824829C22.6965 0.824829 23.6837 1.86716 23.6837 3.16978V14.0217H23.6848Z" fill="#4F4F4F"/>
<path d="M43.0093 17.2343C42.5988 17.5381 42.2697 17.6689 41.7756 17.6689C40.707 17.6689 39.8437 16.7573 39.8437 15.6278C39.8437 15.1496 40.0088 14.629 40.378 14.1944C41.5291 12.8494 43.5848 11.4161 47.1207 11.4161C52.2181 11.4161 55.261 14.0649 55.261 18.6652V29.7786C55.261 31.0364 54.2739 32.0788 53.0826 32.0788C51.8902 32.0788 50.9031 31.0364 50.9031 29.7786C49.7932 31.6466 47.984 32.2967 45.5178 32.2967C41.489 32.2967 38.8164 29.6479 38.8164 25.7424C38.8164 21.7038 41.8994 19.6204 45.4766 19.6204H50.8618V18.8395C50.8618 16.8844 49.5055 15.583 47.1207 15.583C45.3115 15.5842 44.0365 16.4522 43.0093 17.2343ZM50.8618 24.4834V23.2679H46.0521C44.2429 23.2679 43.2569 24.1807 43.2569 25.7436C43.2569 27.3913 44.3667 28.3925 46.669 28.3925C48.8474 28.3912 50.8618 26.9131 50.8618 24.4834Z" fill="#4F4F4F"/>
<path d="M60.6084 8.37839C60.6084 7.11936 61.5955 6.07703 62.7868 6.07703C63.9792 6.07703 64.9663 7.11936 64.9663 8.37839V12.0248H66.8157C67.843 12.0248 68.6662 12.8928 68.6662 13.9787C68.6662 15.0646 67.8441 15.9326 66.8157 15.9326H64.9663V26.4371C64.9663 27.437 65.7884 28 66.5279 28C67.5976 28 68.4609 28.9128 68.4609 30.041C68.4609 31.1717 67.5976 32.0821 66.5279 32.0821C62.8693 32.0821 60.6072 29.6089 60.6072 26.178V15.9338H59.6625C58.6352 15.9338 57.812 15.0658 57.812 13.9799C57.812 12.894 58.6341 12.026 59.6625 12.026H60.6084V8.37839Z" fill="#4F4F4F"/>
</svg>
