<svg width="168" height="23" viewBox="0 0 168 23" fill="none" xmlns="http://www.w3.org/2000/svg">
<path fill-rule="evenodd" clip-rule="evenodd" d="M117.573 0.647839H120.999V19.1823H135.853L133.672 22.803H117.573V0.647839ZM90.67 22.803L77.9974 1.68977C77.2184 0.319229 75.1415 0.31923 74.2581 1.74488L61.69 22.803H65.8449L69.6364 16.4412H77.7384L79.8685 12.8214H71.7665L76.1814 5.5289L86.517 22.803H90.67ZM98.3811 0.654848C92.5913 0.654848 88.7799 5.61105 88.7799 11.7254C88.7799 17.8388 92.5923 22.797 98.3811 22.797L112.46 22.7789L114.663 19.1903H98.4845C94.582 19.1903 92.2981 15.8481 92.2981 11.7254C92.2981 7.60275 94.581 4.26054 98.4845 4.26054H112.896L115.023 0.643833L98.3811 0.654848ZM10.5084 4.26054H25.3613C29.2657 4.26054 31.5486 7.60275 31.5486 11.7254C31.5486 15.8481 29.2667 19.1903 25.3613 19.1903H10.5084C6.60395 19.1903 4.32202 15.8481 4.32202 11.7254C4.32202 7.60275 6.60395 4.26054 10.5084 4.26054ZM10.5084 0.654848C4.71769 0.654848 0.90625 5.61105 0.90625 11.7254C0.90625 17.8388 4.71769 22.797 10.5084 22.797H25.3613C31.152 22.797 34.9634 17.8388 34.9634 11.7254C34.9634 5.61105 31.152 0.654848 25.3613 0.654848H10.5084ZM139.515 13.4807C140.072 16.7568 142.207 19.1903 145.54 19.1903H161.718L159.513 22.7789L145.436 22.797C139.645 22.797 135.835 17.8388 135.835 11.7254C135.835 5.61105 139.646 0.654848 145.436 0.654848L162.078 0.644835L159.952 4.26155H145.541C142.255 4.26155 140.11 6.65399 139.516 9.86195H159.849L157.668 13.4817H139.515V13.4807ZM54.3413 13.8013C55.9735 13.7712 57.5292 13.0654 58.6735 11.836C59.8177 10.6065 60.4588 8.95177 60.4588 7.22806C60.4588 5.50435 59.8177 3.84959 58.6735 2.62014C57.5292 1.3907 55.9735 0.684939 54.3413 0.654848L36.8649 0.646837V22.802H40.7086V4.26155H54.3413C55.0864 4.26155 55.801 4.57409 56.3279 5.13042C56.8548 5.68675 57.1508 6.44129 57.1508 7.22806C57.1508 8.01483 56.8548 8.76937 56.3279 9.3257C55.801 9.88203 55.0864 10.1946 54.3413 10.1946H43.4089L55.7418 22.7769H60.7032L51.8744 13.8093L54.3413 13.8013ZM165.668 0.667872C166.559 0.667872 167.264 1.41126 167.264 2.39709C167.264 3.39895 166.56 4.13632 165.668 4.13632C164.766 4.13632 164.064 3.39895 164.064 2.39709C164.064 1.41126 164.766 0.667872 165.668 0.667872V0.321228C164.584 0.321228 163.667 1.20186 163.667 2.39608C163.667 3.60232 164.584 4.48296 165.668 4.48296C166.743 4.48296 167.661 3.60232 167.661 2.39608C167.661 1.20186 166.743 0.321228 165.668 0.321228V0.667872Z" fill="#4F4F4F"/>
<path fill-rule="evenodd" clip-rule="evenodd" d="M165.252 1.50994H165.722C165.961 1.50994 166.217 1.56504 166.217 1.86259C166.217 2.23128 165.956 2.25432 165.662 2.25432H165.251V2.5629H165.647L166.248 3.60382H166.633L165.986 2.54686C166.32 2.50278 166.575 2.31644 166.575 1.88664C166.575 1.41276 166.309 1.20337 165.772 1.20337H164.905V3.60382H165.25V1.50994H165.252Z" fill="#4F4F4F"/>
</svg>
