<svg width="158" height="33" viewBox="0 0 158 33" fill="none" xmlns="http://www.w3.org/2000/svg">
<path d="M42.1447 26.3495V32.2994H38.6106V12.9299H42.1447V13.8566C43.1973 13.134 44.4235 12.7442 45.6789 12.733C49.6921 12.733 52.6431 16.1018 52.6431 20.1155C52.6431 24.1291 49.7196 27.498 45.6789 27.498C44.4181 27.5002 43.1861 27.0998 42.1447 26.3495ZM42.1447 18.3491V21.774C42.4235 22.4008 42.8568 22.9369 43.3991 23.3261C43.9415 23.7154 44.573 23.9436 45.2275 23.9868C45.882 24.03 46.5355 23.8866 47.1195 23.5716C47.7035 23.2566 48.1966 22.7816 48.5471 22.1964C48.8976 21.6111 49.0927 20.9371 49.1118 20.245C49.131 19.5528 48.9736 18.868 48.6561 18.2621C48.3386 17.6562 47.8727 17.1516 47.3071 16.8011C46.7415 16.4506 46.0971 16.2671 45.4413 16.2698C44.7633 16.2597 44.096 16.4488 43.5138 16.816C42.9317 17.1832 42.4577 17.714 42.1447 18.3491Z" fill="#4F4F4F"/>
<path d="M54.557 9.02633C54.5455 8.74386 54.5887 8.46188 54.6842 8.19772C54.7797 7.93357 54.9253 7.69283 55.1122 7.4903C55.299 7.28777 55.5231 7.12773 55.7707 7.02003C56.0183 6.91233 56.2841 6.85925 56.5518 6.86403C56.8233 6.85906 57.0929 6.91139 57.3449 7.01796C57.5969 7.12452 57.8262 7.28318 58.0193 7.4846C58.2125 7.68603 58.3656 7.92616 58.4696 8.19092C58.5736 8.45567 58.6265 8.7397 58.6252 9.02633C58.6195 9.60281 58.3985 10.1536 58.0102 10.5589C57.6219 10.9642 57.0978 11.1913 56.5518 11.1907C56.2856 11.1894 56.0222 11.1321 55.7771 11.0221C55.5321 10.9122 55.3102 10.7518 55.1245 10.5503C54.9388 10.3488 54.793 10.1103 54.6955 9.8486C54.5981 9.58695 54.551 9.30742 54.557 9.02633ZM54.771 12.9301H58.3601V27.2743H54.771V12.9301Z" fill="#4F4F4F"/>
<path d="M60.4851 20.0608C60.4779 19.0953 60.6536 18.1381 61.0018 17.2454C61.35 16.3527 61.8637 15.5425 62.5127 14.8624C63.1617 14.1823 63.933 13.6461 64.7811 13.2853C65.6292 12.9244 66.537 12.7462 67.4513 12.7612C68.7013 12.7619 69.9317 13.0895 71.0325 13.7148V12.9291H74.5431V26.4585C74.5431 30.1902 71.4841 32.2136 67.6574 32.2136C65.158 32.2136 62.7646 31.4279 61.1958 30.1404L62.6586 27.4744C64.1495 28.4829 65.8869 29.0096 67.6574 28.9898C70.1294 28.9898 70.901 27.9533 71.007 26.2678C69.9422 26.987 68.7074 27.3756 67.4434 27.3894C63.3752 27.3852 60.4851 24.1863 60.4851 20.0608ZM71.0325 21.6592V18.4603C70.7356 17.7928 70.2659 17.2277 69.6777 16.83C69.0895 16.4324 68.4069 16.2185 67.7085 16.213C67.2262 16.2081 66.7478 16.3038 66.3007 16.4948C65.8536 16.6858 65.4467 16.9681 65.1033 17.3257C64.7599 17.6833 64.4868 18.109 64.2998 18.5784C64.1127 19.0477 64.0154 19.5515 64.0133 20.0608C64.0133 22.277 65.6076 23.8215 67.6829 23.8215C68.3793 23.8406 69.0661 23.6467 69.6604 23.263C70.2547 22.8794 70.7312 22.3224 71.0325 21.6592Z" fill="#4F4F4F"/>
<path d="M76.6731 20.0608C76.6659 19.0953 76.8416 18.1381 77.1898 17.2454C77.538 16.3527 78.0517 15.5425 78.7007 14.8624C79.3497 14.1823 80.1209 13.6461 80.969 13.2853C81.8171 12.9244 82.725 12.7462 83.6392 12.7612C84.8919 12.7607 86.1251 13.0884 87.2284 13.7148V12.9291H90.737V26.4585C90.737 30.1902 87.6799 32.2136 83.8533 32.2136C81.3538 32.2136 78.9604 31.4279 77.3917 30.1404L78.8544 27.4744C80.3452 28.4832 82.0827 29.01 83.8533 28.9898C86.3252 28.9898 87.0968 27.9533 87.2028 26.2678C86.1379 26.9867 84.9031 27.3753 83.6392 27.3894C79.5711 27.3852 76.6731 24.1863 76.6731 20.0608ZM87.2284 21.6592V18.4603C86.9312 17.793 86.4615 17.228 85.8734 16.8303C85.2852 16.4327 84.6026 16.2187 83.9043 16.213C83.422 16.2081 82.9436 16.3038 82.4965 16.4948C82.0494 16.6858 81.6425 16.9681 81.2991 17.3257C80.9557 17.6833 80.6827 18.109 80.4956 18.5784C80.3086 19.0477 80.2112 19.5515 80.2092 20.0608C80.2092 22.277 81.8035 23.8215 83.8788 23.8215C84.5751 23.8404 85.2617 23.6463 85.856 23.2627C86.4503 22.879 86.9269 22.3222 87.2284 21.6592Z" fill="#4F4F4F"/>
<path d="M95.8927 12.9294L99.4563 22.5011L103.124 12.9294H106.854L99.0302 32.2989H95.7081L97.6715 27.1346L91.96 12.9294H95.8927Z" fill="#4F4F4F"/>
<path d="M106.177 12.9294H109.978L113.441 22.6152L116.871 12.9294H120.602L115.152 27.2735H111.576L106.177 12.9294Z" fill="#4F4F4F"/>
<path d="M120.854 20.0036C120.854 15.963 123.591 12.6211 127.871 12.6211C131.833 12.6211 134.843 15.7661 134.915 19.8979C134.943 20.2532 134.943 20.6102 134.915 20.9655H124.203C124.309 22.9869 126.143 24.3054 128.11 24.3054C129.732 24.3054 130.688 23.8286 131.805 22.8542L133.747 25.0165C132.177 26.7559 130.606 27.5706 128.11 27.5706C123.512 27.5561 120.854 23.9343 120.854 20.0036ZM124.388 18.2912H131.248C130.902 16.9457 129.677 15.7661 127.818 15.7661C125.664 15.7661 124.761 16.9167 124.388 18.2912Z" fill="#4F4F4F"/>
<path d="M135.657 25.7308L137.395 22.7538C138.954 23.8514 140.783 24.4464 142.657 24.4662C144.44 24.4662 145.343 23.9894 145.343 23.1767C145.343 22.6418 144.917 22.25 144.014 22.0531L140.283 21.2114C137.546 20.5894 136.295 19.2191 136.295 16.9738C136.295 14.5876 138.21 12.5933 142.172 12.5933C144.563 12.5933 146.688 13.3251 148.152 14.2787L146.531 17.1418C145.335 16.468 143.741 15.7382 142.064 15.7382C140.55 15.7382 139.672 16.1321 139.672 16.8598C139.672 17.3387 139.992 17.6476 140.868 17.8155L144.01 18.4375C147.412 19.1382 148.722 20.7387 148.722 22.901C148.722 26.0107 145.777 27.6444 142.553 27.6444C140.131 27.6938 137.743 27.0313 135.657 25.7308Z" fill="#4F4F4F"/>
<path d="M149.429 12.929H151.45V8.97138L154.984 6.55823V12.929H157.057V16.186H154.986V27.2753H151.452V16.186H149.427V12.929H149.429Z" fill="#4F4F4F"/>
<path d="M29.7611 15.2371C29.7021 14.3265 29.5608 13.4241 29.339 12.542C28.3278 8.60297 26.1975 5.5036 22.95 3.29154C20.9045 1.88688 18.555 1.05304 16.1213 0.868023C15.0988 0.789166 14.0714 0.818335 13.0544 0.955096C11.983 1.10483 10.9299 1.37519 9.91295 1.76155C7.20504 2.79294 4.84167 4.63757 3.11356 7.06855C1.38544 9.49953 0.367941 12.4108 0.18621 15.4444C0.152832 16.0021 0.152832 16.5639 0.152832 17.1236V30.7318C0.152832 31.0854 0.285842 31.4244 0.522602 31.6744C0.759362 31.9244 1.08048 32.0649 1.41531 32.0649H6.39452C6.70612 32.0628 7.00619 31.9401 7.2378 31.72C7.46942 31.4999 7.61648 31.1977 7.6511 30.8707C7.68387 30.743 7.70102 30.6113 7.70215 30.4789V30.1638C7.69921 30.1397 7.69921 30.1153 7.70215 30.0912V30.056C7.73612 30.0655 7.76808 30.0817 7.7964 30.1037C9.65884 31.1911 11.7215 31.8417 13.8437 32.011C14.6937 32.0773 15.5475 32.0683 16.3961 31.984C18.3938 31.7898 20.3327 31.1657 22.0933 30.1502C23.8539 29.1348 25.399 27.7495 26.6334 26.0797C28.3928 23.7427 29.4694 20.9151 29.7316 17.9425C29.8204 17.0436 29.8303 16.1379 29.7611 15.2371ZM17.6272 23.9319C17.6184 23.9798 17.5939 24.0229 17.558 24.0536C17.5221 24.0843 17.4771 24.1007 17.4309 24.0998H12.5223C12.4761 24.1007 12.4311 24.0843 12.3952 24.0536C12.3593 24.0229 12.3348 23.9798 12.326 23.9319V23.8987V23.7059C12.3249 23.468 12.3499 23.2308 12.4006 22.999C12.432 22.9202 12.4516 22.8269 12.4831 22.7398C12.5145 22.6527 12.5459 22.5719 12.5773 22.4869C12.6087 22.4019 12.6598 22.3252 12.703 22.2526L12.7736 22.1407C12.8198 22.0682 12.8703 21.999 12.9248 21.9334C12.9818 21.8587 13.0387 21.7945 13.0956 21.726C13.391 21.4193 13.75 21.1893 14.1441 21.0543C13.8046 20.8591 13.5363 20.5502 13.3813 20.1763C13.2264 19.8023 13.1937 19.3845 13.2885 18.9888C13.3832 18.5931 13.5999 18.2419 13.9044 17.9905C14.209 17.7391 14.5841 17.6019 14.9707 17.6005C15.4322 17.6041 15.8741 17.7984 16.2018 18.1416C16.3915 18.3431 16.5343 18.5884 16.619 18.8582C16.7037 19.1279 16.7279 19.4147 16.6899 19.696C16.6518 19.9773 16.5525 20.2455 16.3996 20.4794C16.2468 20.7133 16.0446 20.9065 15.8091 21.044C16.3393 21.2285 16.8006 21.5853 17.1272 22.0634C17.4537 22.5415 17.6288 23.1164 17.6272 23.7059C17.6272 23.7805 17.6272 23.8614 17.6272 23.9319ZM26.0895 12.6415H3.87153C3.82989 12.6412 3.7889 12.6304 3.75195 12.6102C3.715 12.5899 3.68314 12.5606 3.65899 12.5248C3.63484 12.489 3.61908 12.4476 3.61303 12.4041C3.60697 12.3606 3.61078 12.3162 3.62414 12.2745C4.45317 9.79379 5.99052 7.64563 8.0243 6.12617C10.0581 4.6067 12.4881 3.79073 14.9795 3.79073C17.4709 3.79073 19.901 4.6067 21.9348 6.12617C23.9686 7.64563 25.5059 9.79379 26.3349 12.2745C26.3482 12.316 26.3521 12.3602 26.3461 12.4036C26.3402 12.4469 26.3246 12.4882 26.3007 12.524C26.2767 12.5597 26.2451 12.589 26.2084 12.6095C26.1717 12.6299 26.131 12.6409 26.0895 12.6415Z" fill="#4F4F4F"/>
</svg>
