<svg width="91" height="33" viewBox="0 0 91 33" fill="none" xmlns="http://www.w3.org/2000/svg">
<path fill-rule="evenodd" clip-rule="evenodd" d="M63.2178 26.8656H60.936C60.6933 26.8656 60.4506 26.6093 60.4506 26.3017V23.2773C60.4506 23.021 60.6933 22.7647 60.936 22.7647H63.2178C63.5091 22.7647 63.7518 23.021 63.7518 23.2773V26.3017C63.7518 26.6093 63.5091 26.8656 63.2178 26.8656ZM11.3688 26.8656H9.03847C8.74718 26.8656 8.50444 26.558 8.50444 26.3017V17.4848C8.50444 15.178 8.11606 14.5629 6.41689 14.5629C5.54303 14.5629 4.52352 14.8704 3.45547 15.4856V26.3017C3.45547 26.558 3.21273 26.8656 2.92145 26.8656H0.591154C0.299868 26.8656 0.0571289 26.558 0.0571289 26.3017V1.33744C0.0571289 1.08114 0.299868 0.824829 0.591154 0.824829H2.92145C3.21273 0.824829 3.45547 1.08114 3.45547 1.33744V12.5637C4.42643 11.9485 5.49448 11.5897 7.29075 11.5897C10.8347 11.5897 11.9028 14.204 11.9028 17.4848V26.3017C11.9028 26.558 11.66 26.8656 11.3688 26.8656ZM21.1269 18.2537C21.1269 16.0494 20.2045 14.6141 18.4082 14.6141C16.6119 14.6141 15.641 16.0494 15.641 18.2537V20.4067C15.641 22.6109 16.6119 23.9949 18.4082 23.9949C20.2045 23.9949 21.1269 22.6109 21.1269 20.4067V18.2537ZM18.4082 27.0706C14.3787 27.0706 12.2912 24.2513 12.2912 20.4067V18.2537C12.2912 14.4091 14.3787 11.5897 18.4082 11.5897C22.3891 11.5897 24.5252 14.4091 24.5252 18.2537V20.4067C24.5252 24.2513 22.3891 27.0706 18.4082 27.0706ZM32.0501 26.8656C31.419 26.9681 30.885 27.0706 30.3024 27.0706C27.3895 27.0706 26.2244 26.4042 26.2244 22.8159V14.4091L23.8455 14.0503C23.5543 13.999 23.3115 13.7939 23.3115 13.4864V12.3074C23.3115 11.9998 23.5543 11.7435 23.8455 11.7435H26.2244V9.53925C26.2244 9.28295 26.4671 9.0779 26.7584 9.02664L29.1372 8.61655H29.2343C29.4771 8.61655 29.6227 8.71907 29.6227 8.97538V11.7435H31.953C32.1958 11.7435 32.4385 11.9998 32.4385 12.3074V13.8452C32.4385 14.1528 32.1958 14.4091 31.953 14.4091H29.6227V22.8159C29.6227 24.1487 29.7198 24.3025 30.6422 24.3025H32.0016C32.3414 24.3025 32.5356 24.4563 32.5356 24.7126V26.4042C32.5356 26.6605 32.3899 26.8143 32.0501 26.8656ZM41.5169 17.8948C41.5169 15.8444 40.4489 14.6141 38.8468 14.6141C37.2447 14.6141 36.1281 15.7931 36.1281 17.8948V17.9974H41.5169V17.8948ZM44.4298 20.5092H36.0796V20.6117C36.0796 22.1495 36.7107 23.9949 39.1381 23.9949C41.0315 23.9949 42.7792 23.8412 43.8472 23.7386H43.9443C44.1871 23.7386 44.3812 23.8924 44.3812 24.1487V25.8916C44.3812 26.353 44.3327 26.5068 43.8472 26.6093C42.1966 26.9168 41.2256 27.0706 38.8953 27.0706C36.3223 27.0706 32.7298 25.6353 32.7298 20.3554V18.3562C32.7298 14.204 34.9144 11.5897 38.8468 11.5897C42.7792 11.5897 44.9638 14.3578 44.9638 18.3562V19.8428C44.9638 20.3041 44.7696 20.5092 44.4298 20.5092ZM48.5564 32.1968H46.1775C45.8862 32.1968 45.6435 31.8892 45.6435 31.6329V7.02745C45.6435 6.71988 45.8862 6.46357 46.1775 6.46357H48.5564C48.8476 6.46357 49.0418 6.71988 49.0418 7.02745V31.6329C49.0418 31.8892 48.8476 32.1968 48.5564 32.1968ZM54.6734 27.0706C53.7024 27.0706 51.5178 26.9168 50.1099 26.5068C49.7701 26.4555 49.6244 26.2504 49.6244 25.8916V24.3025C49.6244 24.0975 49.7701 23.8924 50.0613 23.8924H50.1584C51.3721 24.0462 53.7024 24.1487 54.4306 24.1487C56.0327 24.1487 56.2755 23.6361 56.2755 22.8672C56.2755 22.4058 55.9842 22.047 55.1589 21.5344L51.6149 19.2789C50.9885 18.9094 50.4628 18.3756 50.0886 17.7291C49.7145 17.0826 49.5044 16.3453 49.4788 15.5881C49.4788 12.9225 51.0808 11.5897 54.3335 11.5897C56.4211 11.5897 57.5862 11.7948 58.897 12.1023C59.2369 12.2048 59.3825 12.4099 59.3825 12.7175V14.2553C59.3825 14.6141 59.2369 14.7679 58.9456 14.7679H58.8485C58.1203 14.6654 56.0813 14.4603 54.6248 14.4603C53.4111 14.4603 52.8771 14.7679 52.8771 15.5881C52.8771 15.9982 53.2655 16.2545 53.8966 16.6646L57.2464 18.8176C59.3825 20.2016 59.7223 21.5344 59.7223 22.8672C59.7223 25.2252 58.0232 27.0706 54.6734 27.0706ZM75.9373 26.8656H73.607C73.3157 26.8656 73.073 26.558 73.073 26.3017V17.5873C73.073 15.2293 72.8788 14.5629 70.8883 14.5629C70.0145 14.5629 69.0921 14.9217 68.024 15.5368V26.3017C68.024 26.558 67.7813 26.8656 67.49 26.8656H65.1597C64.8684 26.8656 64.6257 26.558 64.6257 26.3017V12.3074C64.6257 11.9998 64.8684 11.7435 65.1597 11.7435H67.3929C67.6356 11.7435 67.8784 11.9998 67.8784 12.3074V12.8712C69.3834 11.846 70.3543 11.5897 72.0535 11.5897C75.7431 11.5897 76.4713 14.1528 76.4713 17.5873V26.3017C76.4713 26.558 76.2286 26.8656 75.9373 26.8656ZM86.3265 16.7158C86.3265 15.4343 85.7925 14.4603 83.6078 14.4603C81.4232 14.4603 80.8406 15.4856 80.8406 16.7158V16.9721C80.8406 17.9461 81.1805 19.0739 83.6078 19.0739C85.6954 19.0739 86.3265 18.3049 86.3265 16.9721V16.7158ZM86.6178 27.8908C86.6178 27.3269 86.278 26.9681 83.6078 26.3017L81.3261 25.7378C80.9377 26.3017 80.6464 26.6605 80.6464 27.5832V27.8395C80.6464 28.916 81.3261 29.5824 83.7049 29.5824C86.1809 29.5824 86.6178 29.0698 86.6178 28.0959V27.8908ZM89.8705 14.204L88.9967 14.5629C89.4336 15.178 89.6278 15.7419 89.6278 16.6646V16.8696C89.6278 20.2016 87.4431 21.7394 83.6078 21.7394C82.2485 21.7394 81.3261 21.4831 80.7921 21.2781C80.5008 21.4831 80.3551 21.7394 80.3551 21.9958C80.3551 22.5084 80.6464 22.7134 81.229 22.8672L84.239 23.6361C87.7344 24.4563 89.9676 25.0202 89.9676 27.8908V28.0959C89.9676 30.8127 88.0742 32.2993 83.7049 32.2993C79.5784 32.2993 77.3452 30.6589 77.3452 27.8395V27.5832C77.3452 26.5068 77.8307 25.4303 78.656 24.6613C78.3031 24.3696 78.0188 23.9957 77.8251 23.569C77.6315 23.1422 77.5337 22.674 77.5394 22.2008V22.1495C77.5394 21.3294 77.8307 20.5092 78.5589 19.9966C77.7821 19.1764 77.4908 18.2024 77.4908 16.8696V16.6646C77.4908 13.999 79.1415 11.7435 83.6078 11.7435H89.5792C89.9676 11.7435 90.2589 12.1023 90.2589 12.4612V13.5889C90.2589 13.999 90.1618 14.0503 89.8705 14.204Z" fill="#4F4F4F"/>
</svg>
