<svg width="63" height="33" viewBox="0 0 63 33" fill="none" xmlns="http://www.w3.org/2000/svg">
<path d="M34.6833 16.4948H25.5125C25.5431 17.4781 25.9078 18.417 26.5399 19.1399C26.8427 19.4618 27.2051 19.7142 27.6046 19.8813C28.004 20.0484 28.4318 20.1266 28.8612 20.111C29.5969 20.111 30.2057 19.9302 30.6877 19.5551C31.1634 19.1868 31.7025 18.5038 32.305 17.506L34.7975 18.9792C34.4169 19.669 34.0047 20.265 33.5798 20.7672C33.1485 21.2561 32.6918 21.6579 32.1972 21.986C31.705 22.2999 31.1703 22.5325 30.6116 22.6758C30.005 22.828 29.3832 22.9022 28.7597 22.8968C26.8507 22.8968 25.3159 22.2539 24.1616 20.9548C23.0073 19.6556 22.4302 17.9279 22.4302 15.7715C22.4302 13.6353 22.9883 11.9075 24.1109 10.5883C25.2398 9.28243 26.7365 8.63285 28.6011 8.63285C30.4848 8.63285 31.9688 9.26233 33.066 10.528C34.1506 11.787 34.696 13.5281 34.696 15.7581L34.6833 16.4948ZM31.6454 13.9433C31.2331 12.2758 30.2438 11.4455 28.6646 11.4455C28.1593 11.4385 27.6608 11.5684 27.2167 11.8228C26.7726 12.0772 26.3976 12.4476 26.1277 12.8986C25.9373 13.2217 25.7961 13.5742 25.7091 13.9433H31.6454ZM36.884 9.00786H39.8395V10.2133C40.2532 9.71862 40.7419 9.29996 41.2855 8.97438C41.76 8.73446 42.2818 8.61738 42.8076 8.63285C43.5877 8.63285 44.3995 8.90071 45.2494 9.43645L43.8985 12.2892C43.4269 11.8975 42.8493 11.6746 42.2495 11.6531C40.645 11.6531 39.8395 12.9388 39.8395 15.5103V22.5151H36.884V9.00786ZM49.2767 9.00786V22.5151H46.3212V9.00786H49.2767ZM45.8773 6.13498C45.8773 5.59255 46.0675 5.11709 46.4417 4.72868C46.8223 4.32688 47.2662 4.12598 47.7926 4.12598C48.3254 4.12598 48.782 4.32688 49.1625 4.72868C49.5367 5.11039 49.727 5.58585 49.727 6.14838C49.727 6.71759 49.5367 7.19306 49.1562 7.59486C48.7947 7.99666 48.338 8.19087 47.8053 8.19087C47.2726 8.19087 46.8159 7.98996 46.4417 7.58816C46.0612 7.19306 45.8709 6.7109 45.8709 6.13498H45.8773ZM55.0417 11.9142V22.5218H52.0736V11.9142H51.0208V9.00786H52.0736V6.53678C52.0736 4.83582 52.3526 3.63712 52.9108 2.93396C53.6845 1.95625 54.8007 1.46069 56.2721 1.46069C56.7985 1.46069 57.4581 1.62811 58.2572 1.94955V5.13718H56.3799C55.7584 5.13718 55.5111 5.13718 55.2764 5.47201C55.0925 5.85372 55.0417 6.19525 55.0417 7.30021V9.00786H59.9887V11.9142H55.0417Z" fill="#4F4F4F"/>
<path d="M62.456 9.0075V22.5147H59.5006V9.0075H62.456ZM59.0566 6.13462C59.0566 5.59219 59.2469 5.11672 59.6211 4.72831C60.0016 4.32651 60.4456 4.12561 60.972 4.12561C61.5047 4.12561 61.9614 4.32651 62.3355 4.72831C62.7161 5.11002 62.9063 5.58549 62.9063 6.14801C62.9063 6.71723 62.7161 7.19269 62.3355 7.5945C61.974 7.9963 61.5174 8.1905 60.9847 8.1905C60.4519 8.1905 59.9953 7.9896 59.6211 7.5878C59.2406 7.19269 59.0503 6.71053 59.0503 6.13462H59.0566Z" fill="#4F4F4F"/>
<path fill-rule="evenodd" clip-rule="evenodd" d="M8.65477 11.1036C10.716 13.1796 13.7285 16.3471 13.7285 16.3471C13.7285 16.3471 20.6415 6.81103 27.1867 2.2171L27.694 3.81761C25.303 5.57884 18.1173 15.2556 15.3014 23.8139C15.3014 23.8139 7.79858 15.1417 6.37158 13.1662L8.65477 11.1036Z" fill="#4F4F4F"/>
<path d="M15.1554 30.4772C19.8043 30.4772 23.895 27.9324 26.2352 24.0885H28.2521C26.8169 26.8711 24.6198 29.1314 21.9481 30.5739C19.2764 32.0163 16.2546 32.5736 13.278 32.1729C10.3014 31.7722 7.50873 30.4321 5.26526 28.328C3.02179 26.2239 1.43206 23.4538 0.704068 20.38C-0.0239253 17.3063 0.143721 14.0721 1.18507 11.1006C2.22642 8.12914 4.09298 5.55875 6.54053 3.72575C8.98808 1.89275 11.9026 0.882519 14.9029 0.827227C17.9031 0.771934 20.8492 1.67416 23.3559 3.41585L22.1762 4.80207C20.449 3.65233 18.4923 2.94229 16.4606 2.728C14.4289 2.51372 12.3779 2.80106 10.4694 3.56733C8.56091 4.3336 6.84725 5.55783 5.46372 7.14337C4.08019 8.7289 3.06467 10.6323 2.49732 12.7033C1.92998 14.7744 1.82636 16.9563 2.19463 19.0769C2.5629 21.1974 3.39299 23.1986 4.61936 24.9223C5.84572 26.646 7.43479 28.0451 9.26109 29.0092C11.0874 29.9732 13.1009 30.4758 15.1427 30.4772H15.1554Z" fill="#4F4F4F"/>
</svg>
