<svg width="60" height="41" viewBox="0 0 60 41" fill="none" xmlns="http://www.w3.org/2000/svg">
<path fill-rule="evenodd" clip-rule="evenodd" d="M59.6467 13.4399C60.11 13.0069 60.1187 12.3074 59.6664 11.8644C51.9262 4.28502 41.2779 0 30 0C18.7222 0 8.07384 4.28502 0.33365 11.8644C-0.118741 12.3074 -0.11002 13.0069 0.353292 13.4399L3.766 16.6295C4.24592 17.0781 5.02716 17.0684 5.49417 16.6081C11.8715 10.3228 20.674 6.76411 30 6.76411C39.326 6.76411 48.1285 10.3228 54.5058 16.6081C54.9728 17.0684 55.7541 17.0781 56.234 16.6295L59.6467 13.4399ZM45.9929 26.201C45.5067 26.6554 44.7131 26.6386 44.2494 26.1641C40.5959 22.4256 35.4557 20.2923 30 20.2923C24.5444 20.2923 19.4042 22.4256 15.7507 26.1641C15.2869 26.6386 14.4933 26.6554 14.0071 26.201L10.5927 23.0098C10.1338 22.5809 10.1202 21.8895 10.562 21.4452C15.5817 16.3971 22.5794 13.5282 30 13.5282C37.4207 13.5282 44.4184 16.3971 49.438 21.4452C49.8798 21.8895 49.8663 22.5809 49.4074 23.0098L45.9929 26.201ZM30.8529 40.3511C30.3819 40.7914 29.6181 40.7914 29.1471 40.3511L20.8456 32.5924C20.4029 32.1786 20.3725 31.5169 20.7758 31.0692C23.0642 28.5287 26.4237 27.0564 30.004 27.0564C33.582 27.0564 36.9397 28.5269 39.2281 31.0647C39.6318 31.5124 39.6016 32.1744 39.1587 32.5884L30.8529 40.3511Z" fill="#030D42"/>
</svg>
